<svg width="64" height="64" xmlns="http://www.w3.org/2000/svg">
  <defs>
    <linearGradient id="cryptoGrad" x1="0%" y1="0%" x2="100%" y2="100%">
      <stop offset="0%" style="stop-color:#f7931a;stop-opacity:1" />
      <stop offset="100%" style="stop-color:#f7931a;stop-opacity:0.6" />
    </linearGradient>
  </defs>
  
  <!-- Circle Background -->
  <circle cx="32" cy="32" r="30" fill="url(#cryptoGrad)" opacity="0.2"/>
  <circle cx="32" cy="32" r="28" fill="none" stroke="url(#cryptoGrad)" stroke-width="2"/>
  
  <!-- Bitcoin Symbol -->
  <g transform="translate(32, 32)">
    <!-- Vertical Lines -->
    <line x1="-2" y1="-20" x2="-2" y2="-14" stroke="#f7931a" stroke-width="2"/>
    <line x1="2" y1="-20" x2="2" y2="-14" stroke="#f7931a" stroke-width="2"/>
    <line x1="-2" y1="14" x2="-2" y2="20" stroke="#f7931a" stroke-width="2"/>
    <line x1="2" y1="14" x2="2" y2="20" stroke="#f7931a" stroke-width="2"/>
    
    <!-- B Shape -->
    <path d="M-8,-12 L4,-12 Q12,-12 12,-6 Q12,0 4,0 L-8,0" 
          fill="none" 
          stroke="#f7931a" 
          stroke-width="2.5"/>
    <path d="M-8,0 L6,0 Q14,0 14,6 Q14,12 6,12 L-8,12" 
          fill="none" 
          stroke="#f7931a" 
          stroke-width="2.5"/>
    <line x1="-8" y1="-12" x2="-8" y2="12" stroke="#f7931a" stroke-width="2.5"/>
  </g>
</svg>